<?xml version="1.0" encoding="utf-8"?>
<svg width="40" height="40" viewBox="0 0 40 40" fill="none" xmlns="http://www.w3.org/2000/svg"><rect x="0.5" y="0.5" width="39" height="39" rx="19.5" stroke="#0213AF"></rect><path fill-rule="evenodd" clip-rule="evenodd" d="M12.709 20C12.709 19.6548 12.9888 19.375 13.334 19.375H26.6673C27.0125 19.375 27.2923 19.6548 27.2923 20C27.2923 20.3452 27.0125 20.625 26.6673 20.625H13.334C12.9888 20.625 12.709 20.3452 12.709 20Z" fill="#0213AF"></path><path fill-rule="evenodd" clip-rule="evenodd" d="M20 12.7109C20.3452 12.7109 20.625 12.9908 20.625 13.3359V26.6693C20.625 27.0144 20.3452 27.2943 20 27.2943C19.6548 27.2943 19.375 27.0144 19.375 26.6693V13.3359C19.375 12.9908 19.6548 12.7109 20 12.7109Z" fill="#0213AF"></path></svg>