<svg xmlns="http://www.w3.org/2000/svg" width="140" height="39" viewBox="0 0 140 39" fill="none">
<path d="M81.5259 18.7209V20.9546H80.0898V22.4195H81.5259V27.3968C81.5259 29.0964 82.3144 29.7762 84.2983 29.7762C84.647 29.7762 84.979 29.7358 85.2695 29.6872V28.2385C85.0205 28.2628 84.8628 28.279 84.5889 28.279C83.7007 28.279 83.3105 27.8743 83.3105 26.9517V22.4195H85.2695V20.9546H83.3105V18.7209H81.5259Z" fill="#FFFFF1"/>
<path d="M90.3234 29.8976C92.963 29.8976 94.5817 28.1738 94.5817 25.3169C94.5817 22.4761 92.9547 20.7442 90.3234 20.7442C87.6837 20.7442 86.0568 22.4761 86.0568 25.3169C86.0568 28.1738 87.6754 29.8976 90.3234 29.8976ZM90.3234 28.3518C88.7711 28.3518 87.8995 27.2431 87.8995 25.3169C87.8995 23.4068 88.7711 22.29 90.3234 22.29C91.8673 22.29 92.7472 23.4068 92.7472 25.3169C92.7472 27.235 91.8673 28.3518 90.3234 28.3518Z" fill="#FFFFF1"/>
<path d="M95.9666 29.7277H97.7512V24.5237C97.7512 23.2855 98.7058 22.4518 100.059 22.4518C100.374 22.4518 100.906 22.5085 101.055 22.5571V20.8413C100.864 20.7927 100.524 20.7684 100.258 20.7684C99.0794 20.7684 98.075 21.3997 97.8176 22.2657H97.6848V20.9141H95.9666V29.7277Z" fill="#FFFFF1"/>
<path d="M105.486 22.2252C106.806 22.2252 107.669 23.1236 107.711 24.5075H103.145C103.245 23.1317 104.166 22.2252 105.486 22.2252ZM107.703 27.3483C107.371 28.0362 106.632 28.4166 105.553 28.4166C104.125 28.4166 103.204 27.4373 103.145 25.8915V25.7944H109.529V25.1874C109.529 22.4195 108.01 20.7442 105.495 20.7442C102.946 20.7442 101.328 22.5328 101.328 25.3492C101.328 28.1657 102.913 29.8976 105.503 29.8976C107.57 29.8976 109.014 28.9265 109.421 27.3483H107.703Z" fill="#FFFFF1"/>
<path d="M69.8223 26.473C69.9599 28.6372 71.8097 30.0213 74.5628 30.0213C77.5052 30.0213 79.3464 28.5701 79.3464 26.2549C79.3464 24.4346 78.2967 23.428 75.7501 22.8492L74.3821 22.522C72.7647 22.1529 72.1108 21.658 72.1108 20.794C72.1108 19.7035 73.126 18.9905 74.6489 18.9905C76.0942 18.9905 77.0923 19.6867 77.2729 20.8024H79.1485C79.0366 18.764 77.1955 17.3296 74.6747 17.3296C71.9646 17.3296 70.1578 18.764 70.1578 20.9198C70.1578 22.6982 71.1816 23.7551 73.4272 24.2668L75.0274 24.6443C76.6707 25.0218 77.3934 25.5754 77.3934 26.4981C77.3934 27.5719 76.2577 28.352 74.7091 28.352C73.0486 28.352 71.8957 27.6222 71.7323 26.473H69.8223Z" fill="#FFFFF1"/>
<path d="M51.3349 20.7684C50.1064 20.7684 49.0439 21.3673 48.4961 22.3709H48.3633V20.9141H46.645V32.6574H48.4297V28.3923H48.5708C49.0439 29.323 50.0649 29.8734 51.3516 29.8734C53.6343 29.8734 55.0869 28.1171 55.0869 25.3169C55.0869 22.5166 53.6343 20.7684 51.3349 20.7684ZM50.8286 28.3114C49.3345 28.3114 48.3965 27.1621 48.3965 25.325C48.3965 23.4797 49.3345 22.3304 50.8369 22.3304C52.3476 22.3304 53.2524 23.4554 53.2524 25.3169C53.2524 27.1864 52.3476 28.3114 50.8286 28.3114Z" fill="#FFFFF1"/>
<path d="M61.3317 20.7684C60.1032 20.7684 59.0407 21.3673 58.4929 22.3709H58.3601V20.9141H56.6418V32.6574H58.4265V28.3923H58.5676C59.0407 29.323 60.0617 29.8734 61.3483 29.8734C63.6311 29.8734 65.0837 28.1171 65.0837 25.3169C65.0837 22.5166 63.6311 20.7684 61.3317 20.7684ZM60.8254 28.3114C59.3313 28.3114 58.3933 27.1621 58.3933 25.325C58.3933 23.4797 59.3313 22.3304 60.8337 22.3304C62.3444 22.3304 63.2492 23.4554 63.2492 25.3169C63.2492 27.1864 62.3444 28.3114 60.8254 28.3114Z" fill="#FFFFF1"/>
<path d="M43.443 29.7277H45.4906L41.0082 17.6232H38.9348L34.4523 29.7277H36.4311L37.5754 26.5149H42.3073L43.443 29.7277ZM39.8725 19.821H40.0188L41.8169 24.9379H38.0658L39.8725 19.821Z" fill="#FFFFF1"/>
<path d="M35.6511 8.49337V14.3327H37.8135C39.5981 14.3327 40.6316 13.2603 40.6316 11.3948C40.6316 9.55763 39.5898 8.49337 37.8135 8.49337H35.6511ZM36.5808 9.31888H37.7097C38.9507 9.31888 39.6853 10.0877 39.6853 11.4069C39.6853 12.7464 38.9631 13.5071 37.7097 13.5071H36.5808V9.31888Z" fill="#FFFFF1"/>
<path d="M43.7967 14.4176C45.1165 14.4176 45.9258 13.5557 45.9258 12.1272C45.9258 10.7069 45.1124 9.84089 43.7967 9.84089C42.4769 9.84089 41.6634 10.7069 41.6634 12.1272C41.6634 13.5557 42.4727 14.4176 43.7967 14.4176ZM43.7967 13.6447C43.0206 13.6447 42.5848 13.0903 42.5848 12.1272C42.5848 11.1722 43.0206 10.6138 43.7967 10.6138C44.5687 10.6138 45.0086 11.1722 45.0086 12.1272C45.0086 13.0863 44.5687 13.6447 43.7967 13.6447Z" fill="#FFFFF1"/>
<path d="M52.818 9.92587H51.9256L51.1205 13.2886H51.0499L50.1202 9.92587H49.2652L48.3355 13.2886H48.2691L47.4598 9.92587H46.555L47.8001 14.3327H48.7174L49.6471 11.0873H49.7176L50.6515 14.3327H51.577L52.818 9.92587Z" fill="#FFFFF1"/>
<path d="M53.8456 14.3327H54.7379V11.755C54.7379 11.067 55.1571 10.6381 55.817 10.6381C56.477 10.6381 56.7924 10.9901 56.7924 11.6983V14.3327H57.6847V11.4798C57.6847 10.4317 57.1286 9.84089 56.12 9.84089C55.4394 9.84089 54.9911 10.1363 54.7711 10.6259H54.7047V9.92587H53.8456V14.3327Z" fill="#FFFFF1"/>
<path d="M59.09 14.3327H59.9824V8.20605H59.09V14.3327Z" fill="#FFFFF1"/>
<path d="M63.3384 14.4176C64.6582 14.4176 65.4675 13.5557 65.4675 12.1272C65.4675 10.7069 64.6541 9.84089 63.3384 9.84089C62.0186 9.84089 61.2051 10.7069 61.2051 12.1272C61.2051 13.5557 62.0144 14.4176 63.3384 14.4176ZM63.3384 13.6447C62.5623 13.6447 62.1265 13.0903 62.1265 12.1272C62.1265 11.1722 62.5623 10.6138 63.3384 10.6138C64.1104 10.6138 64.5503 11.1722 64.5503 12.1272C64.5503 13.0863 64.1104 13.6447 63.3384 13.6447Z" fill="#FFFFF1"/>
<path d="M68.1263 13.6731C67.6407 13.6731 67.2879 13.4424 67.2879 13.0458C67.2879 12.6573 67.5701 12.451 68.1927 12.4105L69.2967 12.3417V12.71C69.2967 13.2562 68.7986 13.6731 68.1263 13.6731ZM67.898 14.4055C68.4915 14.4055 68.9854 14.1546 69.2552 13.7135H69.3257V14.3327H70.1849V11.322C70.1849 10.3912 69.5457 9.84089 68.4126 9.84089C67.3875 9.84089 66.657 10.3265 66.5657 11.0832H67.429C67.5286 10.7716 67.8731 10.5936 68.3711 10.5936C68.9812 10.5936 69.2967 10.8566 69.2967 11.322V11.7023L68.0723 11.7711C66.9974 11.8359 66.3914 12.2932 66.3914 13.0863C66.3914 13.8916 67.0264 14.4055 67.898 14.4055Z" fill="#FFFFF1"/>
<path d="M73.213 14.4055C73.8355 14.4055 74.3626 14.1182 74.6324 13.6366H74.703V14.3327H75.558V8.20605H74.6656V10.6259H74.5992C74.3543 10.1403 73.8314 9.85303 73.213 9.85303C72.0716 9.85303 71.337 10.7352 71.337 12.1272C71.337 13.5233 72.0633 14.4055 73.213 14.4055ZM73.4662 10.634C74.2132 10.634 74.6822 11.2127 74.6822 12.1313C74.6822 13.0539 74.2174 13.6245 73.4662 13.6245C72.7108 13.6245 72.2584 13.062 72.2584 12.1272C72.2584 11.2006 72.7149 10.634 73.4662 10.634Z" fill="#FFFFF1"/>
<path d="M81.3444 14.4176C82.6643 14.4176 83.4736 13.5557 83.4736 12.1272C83.4736 10.7069 82.6601 9.84089 81.3444 9.84089C80.0246 9.84089 79.2111 10.7069 79.2111 12.1272C79.2111 13.5557 80.0205 14.4176 81.3444 14.4176ZM81.3444 13.6447C80.5683 13.6447 80.1325 13.0903 80.1325 12.1272C80.1325 11.1722 80.5683 10.6138 81.3444 10.6138C82.1164 10.6138 82.5563 11.1722 82.5563 12.1272C82.5563 13.0863 82.1164 13.6447 81.3444 13.6447Z" fill="#FFFFF1"/>
<path d="M84.6548 14.3327H85.5471V11.755C85.5471 11.067 85.9663 10.6381 86.6262 10.6381C87.2861 10.6381 87.6016 10.9901 87.6016 11.6983V14.3327H88.4939V11.4798C88.4939 10.4317 87.9377 9.84089 86.9292 9.84089C86.2485 9.84089 85.8003 10.1363 85.5803 10.6259H85.5139V9.92587H84.6548V14.3327Z" fill="#FFFFF1"/>
<path d="M92.6036 8.82924V9.94611H91.8856V10.6785H92.6036V13.1672C92.6036 14.017 92.9979 14.3569 93.9898 14.3569C94.1642 14.3569 94.3302 14.3367 94.4754 14.3124V13.5881C94.3509 13.6002 94.2721 13.6083 94.1351 13.6083C93.691 13.6083 93.4959 13.406 93.4959 12.9447V10.6785H94.4754V9.94611H93.4959V8.82924H92.6036Z" fill="#FFFFF1"/>
<path d="M95.6732 14.3327H96.5656V11.759C96.5656 11.0913 96.9723 10.6421 97.7028 10.6421C98.3336 10.6421 98.6698 10.9982 98.6698 11.7023V14.3327H99.5622V11.4879C99.5622 10.4398 98.9687 9.84494 98.0058 9.84494C97.3251 9.84494 96.8478 10.1403 96.6278 10.634H96.5573V8.20605H95.6732V14.3327Z" fill="#FFFFF1"/>
<path d="M102.781 10.5814C103.441 10.5814 103.873 11.0306 103.894 11.7226H101.611C101.661 11.0346 102.121 10.5814 102.781 10.5814ZM103.889 13.1429C103.723 13.4869 103.354 13.6771 102.814 13.6771C102.101 13.6771 101.64 13.1875 101.611 12.4146V12.366H104.802V12.0625C104.802 10.6785 104.043 9.84089 102.785 9.84089C101.511 9.84089 100.702 10.7352 100.702 12.1434C100.702 13.5517 101.495 14.4176 102.789 14.4176C103.823 14.4176 104.545 13.932 104.748 13.1429H103.889Z" fill="#FFFFF1"/>
<path d="M24.769 19.7933C24.7907 18.1543 25.6934 16.6035 27.1256 15.745C26.2221 14.487 24.7088 13.6893 23.1344 13.6413C21.4552 13.4694 19.8272 14.621 18.9715 14.621C18.0992 14.621 16.7817 13.6584 15.363 13.6868C13.5137 13.7451 11.7898 14.7702 10.8901 16.3465C8.95607 19.6112 10.3987 24.4092 12.2513 27.0482C13.1782 28.3404 14.2615 29.7838 15.6789 29.7326C17.066 29.6765 17.584 28.8703 19.2583 28.8703C20.9171 28.8703 21.4031 29.7326 22.8493 29.7001C24.3377 29.6765 25.2754 28.4021 26.1698 27.0977C26.8358 26.1769 27.3483 25.1593 27.6882 24.0825C25.9391 23.3612 24.771 21.6449 24.769 19.7933Z" fill="#FFFFF1"/>
<path d="M22.0373 11.9058C22.8489 10.9559 23.2487 9.73507 23.1518 8.50244C21.912 8.62941 20.7668 9.20715 19.9443 10.1206C19.14 11.013 18.7214 12.2124 18.8006 13.3979C20.0408 13.4104 21.2601 12.8483 22.0373 11.9058Z" fill="#FFFFF1"/>
<rect x="0.5" y="0.5" width="139" height="38" rx="6.5" stroke="#FFFFF1"/>
</svg>