<?xml version="1.0" encoding="utf-8"?>
<svg width="24" height="24" viewBox="0 0 24 24" fill="none" xmlns="http://www.w3.org/2000/svg">
  <path d="M8.91 3.33C8.72 3.33 8.53 3.4 8.38 3.55C8.09 3.85 8.09 4.33 8.38 4.62L14.9 11.14C15.38 11.62 15.38 12.38 14.9 12.86L8.38 19.39C8.09 19.68 8.09 20.16 8.38 20.45C8.67 20.75 9.15 20.75 9.44 20.45L15.96 13.93C16.47 13.42 16.76 12.73 16.76 12C16.76 11.27 16.48 10.58 15.96 10.07L9.44 3.55C9.29 3.4 9.1 3.33 8.91 3.33Z" fill="#0213AF" transform="rotate(90 12 12)"/>
</svg>

