<svg xmlns="http://www.w3.org/2000/svg" width="140" height="39" viewBox="0 0 140 39" fill="none">
<path d="M68.136 21.2075C65.784 21.2075 63.867 22.9518 63.867 25.3542C63.867 27.7419 65.784 29.5008 68.136 29.5008C70.489 29.5008 72.406 27.7419 72.406 25.3542C72.405 22.9518 70.488 21.2075 68.136 21.2075ZM68.136 27.8687C66.847 27.8687 65.736 26.8323 65.736 25.3551C65.736 23.8624 66.848 22.8416 68.136 22.8416C69.425 22.8416 70.536 23.8624 70.536 25.3551C70.536 26.8313 69.425 27.8687 68.136 27.8687ZM58.822 21.2075C56.47 21.2075 54.553 22.9518 54.553 25.3542C54.553 27.7419 56.47 29.5008 58.822 29.5008C61.175 29.5008 63.092 27.7419 63.092 25.3542C63.092 22.9518 61.175 21.2075 58.822 21.2075ZM58.822 27.8687C57.533 27.8687 56.422 26.8323 56.422 25.3551C56.422 23.8624 57.534 22.8416 58.822 22.8416C60.111 22.8416 61.222 23.8624 61.222 25.3551C61.223 26.8313 60.111 27.8687 58.822 27.8687ZM47.744 22.4808V24.2397H52.062C51.933 25.2294 51.595 25.9518 51.079 26.454C50.451 27.0663 49.468 27.7419 47.744 27.7419C45.086 27.7419 43.008 25.6525 43.008 23.061C43.008 20.4694 45.086 18.38 47.744 18.38C49.178 18.38 50.225 18.9299 50.998 19.6368L52.271 18.3956C51.191 17.3904 49.758 16.6211 47.744 16.6211C44.103 16.6211 41.042 19.511 41.042 23.061C41.042 26.6109 44.103 29.5008 47.744 29.5008C49.709 29.5008 51.192 28.872 52.351 27.6942C53.543 26.532 53.914 24.8979 53.914 23.5787C53.914 23.1711 53.882 22.7938 53.817 22.4799H47.744V22.4808ZM93.052 23.8468C92.698 22.9206 91.618 21.2075 89.411 21.2075C87.22 21.2075 85.399 22.8884 85.399 25.3542C85.399 27.6786 87.204 29.5008 89.62 29.5008C91.569 29.5008 92.697 28.3386 93.165 27.663L91.715 26.7201C91.232 27.4114 90.571 27.8667 89.62 27.8667C88.67 27.8667 87.993 27.4426 87.558 26.61L93.245 24.3168L93.052 23.8468ZM87.252 25.2294C87.204 23.6265 88.525 22.8104 89.476 22.8104C90.217 22.8104 90.845 23.1721 91.055 23.6898L87.252 25.2294ZM82.629 29.2503H84.497V17.0618H82.629V29.2503ZM79.567 22.1347H79.503C79.084 21.6472 78.278 21.2075 77.264 21.2075C75.137 21.2075 73.188 23.0298 73.188 25.3707C73.188 27.6951 75.137 29.5018 77.264 29.5018C78.279 29.5018 79.084 29.0621 79.503 28.56H79.567V29.1567C79.567 30.743 78.697 31.5912 77.296 31.5912C76.152 31.5912 75.443 30.7908 75.153 30.1151L73.526 30.7752C73.993 31.874 75.233 33.2253 77.296 33.2253C79.487 33.2253 81.34 31.9686 81.34 28.9051V21.46H79.568V22.1347H79.567ZM77.425 27.8687C76.136 27.8687 75.057 26.8157 75.057 25.3707C75.057 23.9092 76.136 22.8416 77.425 22.8416C78.697 22.8416 79.696 23.9092 79.696 25.3707C79.696 26.8157 78.697 27.8687 77.425 27.8687ZM101.806 17.0618H97.335V29.2503H99.2V24.6327H101.805C103.873 24.6327 105.907 23.1731 105.907 20.8477C105.907 18.5223 103.874 17.0618 101.806 17.0618ZM101.854 22.9362H99.2V18.7583H101.854C103.249 18.7583 104.041 19.8844 104.041 20.8477C104.041 21.7915 103.249 22.9362 101.854 22.9362ZM113.386 21.186C112.035 21.186 110.636 21.7662 110.057 23.0522L111.713 23.7259C112.067 23.0522 112.727 22.8318 113.418 22.8318C114.383 22.8318 115.364 23.3964 115.38 24.3996V24.5254C115.042 24.3372 114.318 24.0555 113.434 24.0555C111.649 24.0555 109.831 25.0119 109.831 26.7991C109.831 28.4303 111.295 29.4804 112.935 29.4804C114.189 29.4804 114.881 28.9314 115.315 28.2879H115.379V29.2288H117.181V24.5556C117.182 22.3931 115.524 21.186 113.386 21.186ZM113.16 27.8658C112.55 27.8658 111.697 27.5674 111.697 26.8303C111.697 25.8894 112.759 25.5287 113.676 25.5287C114.495 25.5287 114.882 25.7013 115.38 25.9362C115.235 27.0663 114.238 27.8658 113.16 27.8658ZM123.743 21.4522L121.604 26.7367H121.54L119.32 21.4522H117.31L120.639 28.8378L118.741 32.9465H120.687L125.818 21.4522H123.743ZM106.937 29.2503H108.802V17.0618H106.937V29.2503Z" fill="#FFFFF1"/>
<path d="M47.418 9.98686C47.418 10.8039 47.1701 11.4542 46.673 11.9398C46.109 12.517 45.3731 12.8056 44.4691 12.8056C43.6031 12.8056 42.8661 12.5131 42.2611 11.9281C41.6551 11.3421 41.3521 10.6167 41.3521 9.75091C41.3521 8.88414 41.6551 8.15874 42.2611 7.57374C42.8661 6.98776 43.6031 6.69526 44.4691 6.69526C44.8991 6.69526 45.3101 6.77716 45.7001 6.93999C46.0911 7.10379 46.404 7.32121 46.6381 7.59324L46.111 8.10804C45.714 7.64491 45.167 7.41384 44.468 7.41384C43.836 7.41384 43.29 7.63029 42.829 8.06319C42.368 8.49609 42.1381 9.05866 42.1381 9.74994C42.1381 10.4412 42.368 11.0038 42.829 11.4367C43.29 11.8696 43.836 12.086 44.468 12.086C45.138 12.086 45.6971 11.8686 46.1441 11.4328C46.4341 11.1491 46.602 10.7542 46.647 10.2482H44.468V9.54519H47.375C47.405 9.69826 47.418 9.84549 47.418 9.98686Z" fill="#FFFFF1"/>
<path d="M52.0281 7.54357H49.2961V9.39802H51.7601V10.101H49.2961V11.9554H52.0281V12.675H48.5251V6.82499H52.0281V7.54357Z" fill="#FFFFF1"/>
<path d="M55.279 12.675H54.508V7.54357H52.832V6.82499H56.955V7.54357H55.279V12.675Z" fill="#FFFFF1"/>
<path d="M59.938 12.675V6.82499H60.709V12.675H59.938Z" fill="#FFFFF1"/>
<path d="M64.1281 12.675H63.3572V7.54357H61.6812V6.82499H65.8042V7.54357H64.1281V12.675Z" fill="#FFFFF1"/>
<path d="M73.6089 11.9194C73.0189 12.5102 72.2859 12.8056 71.4089 12.8056C70.5319 12.8056 69.7989 12.5102 69.2099 11.9194C68.6199 11.3285 68.3259 10.6051 68.3259 9.74998C68.3259 8.89491 68.6199 8.17146 69.2099 7.58061C69.7989 6.98976 70.5319 6.69336 71.4089 6.69336C72.2809 6.69336 73.0129 6.99073 73.6049 7.58451C74.1969 8.17828 74.4929 8.89978 74.4929 9.74998C74.4929 10.6051 74.1979 11.3285 73.6089 11.9194ZM69.7789 11.4289C70.2229 11.8677 70.7659 12.0861 71.4089 12.0861C72.0519 12.0861 72.5959 11.8667 73.0389 11.4289C73.4829 10.9902 73.7059 10.4305 73.7059 9.74998C73.7059 9.06943 73.4829 8.50978 73.0389 8.07103C72.5959 7.63228 72.0519 7.41388 71.4089 7.41388C70.7659 7.41388 70.2229 7.63326 69.7789 8.07103C69.3359 8.50978 69.1129 9.06943 69.1129 9.74998C69.1129 10.4305 69.3359 10.9902 69.7789 11.4289Z" fill="#FFFFF1"/>
<path d="M75.5749 12.675V6.82499H76.513L79.429 11.3753H79.4619L79.429 10.2482V6.82499H80.1999V12.675H79.3949L76.344 7.90334H76.3109L76.344 9.03044V12.675H75.5749Z" fill="#FFFFF1"/>
<path fill-rule="evenodd" clip-rule="evenodd" d="M10.1536 7.77349C10.0372 8.03317 9.97302 8.35063 9.97302 8.71942V30.2825C9.97302 30.6521 10.0373 30.9696 10.1538 31.2292L22.1814 19.5006L10.1536 7.77349ZM10.858 31.9393C11.3032 32.1221 11.8826 32.062 12.514 31.7129L26.6653 23.8724L22.8976 20.1989L10.858 31.9393ZM27.5794 23.367L32.015 20.9099C33.412 20.1347 33.412 18.8682 32.015 18.0941L27.5774 15.6355L23.6138 19.5006L27.5794 23.367ZM26.664 15.1295L12.514 7.29008C11.8825 6.94019 11.3032 6.88042 10.8579 7.06356L22.8976 18.8022L26.664 15.1295Z" fill="#FFFFF1"/>
<rect x="0.5" y="0.5" width="139" height="38" rx="4.5" stroke="#FFFFF1"/>
</svg>