<svg xmlns="http://www.w3.org/2000/svg" width="42" height="32" viewBox="0 0 42 32" fill="none">
<g clip-path="url(#clip0_3109_160058)">
<path d="M3.94257 29.2199C1.62373 26.6692 0.232422 23.8865 0.232422 19.2489C0.232422 11.1329 6.02952 3.94452 14.1455 0.234375L16.2324 3.24887C8.58025 7.42278 6.95706 12.7561 6.49329 16.2344C7.65271 15.5387 9.2759 15.3068 10.8991 15.5387C15.073 16.0025 18.3194 19.2489 18.3194 23.6547C18.3194 25.7416 17.3918 27.8286 16.0005 29.4518C14.3773 31.075 12.5223 31.7706 10.2034 31.7706C7.65271 31.7706 5.33387 30.6112 3.94257 29.2199ZM27.131 29.2199C24.8121 26.6692 23.4208 23.8865 23.4208 19.2489C23.4208 11.1329 29.2179 3.94452 37.3339 0.234375L39.4208 3.24887C31.7687 7.42278 30.1455 12.7561 29.6817 16.2344C30.8411 15.5387 32.4643 15.3068 34.0875 15.5387C38.2614 16.0025 41.5078 19.2489 41.5078 23.6547C41.5078 25.7416 40.5802 27.8286 39.1889 29.4518C37.7976 31.075 35.7107 31.7706 33.3918 31.7706C30.8411 31.7706 28.5223 30.6112 27.131 29.2199Z" fill="#0213AF"/>
</g>
<defs>
<clipPath id="clip0_3109_160058">
<rect width="41.7391" height="32" fill="white"/>
</clipPath>
</defs>
</svg>