<?xml version="1.0" encoding="utf-8"?>
<svg width="24" height="24" viewBox="0 0 24 24" fill="#0213AF" xmlns="http://www.w3.org/2000/svg"><path d="M11.5002 21.75C5.85024 21.75 1.25024 17.15 1.25024 11.5C1.25024 5.85 5.85024 1.25 11.5002 1.25C17.1502 1.25 21.7502 5.85 21.7502 11.5C21.7502 17.15 17.1502 21.75 11.5002 21.75ZM11.5002 2.75C6.67024 2.75 2.75024 6.68 2.75024 11.5C2.75024 16.32 6.67024 20.25 11.5002 20.25C16.3302 20.25 20.2502 16.32 20.2502 11.5C20.2502 6.68 16.3302 2.75 11.5002 2.75Z" fill="#0213AF"></path><path d="M22.0002 22.7499C21.8102 22.7499 21.6202 22.6799 21.4702 22.5299L19.4702 20.5299C19.1802 20.2399 19.1802 19.7599 19.4702 19.4699C19.7602 19.1799 20.2402 19.1799 20.5302 19.4699L22.5302 21.4699C22.8202 21.7599 22.8202 22.2399 22.5302 22.5299C22.3802 22.6799 22.1902 22.7499 22.0002 22.7499Z" fill="#0213AF"></path></svg>