<svg width="24" height="24" viewBox="0 0 24 24" fill="none" xmlns="http://www.w3.org/2000/svg">
<path fill-rule="evenodd" clip-rule="evenodd" d="M12 24C18.6274 24 24 18.6274 24 12C24 5.37258 18.6274 0 12 0C5.37258 0 0 5.37258 0 12C0 18.6274 5.37258 24 12 24ZM12.5996 5H14.959C14.959 6.78551 16.3504 8.24638 18.125 8.30725V10.7015C16.9755 10.6812 15.8866 10.2957 14.9993 9.64637V14.5362C14.9993 16.9913 13.023 19 10.583 19C8.14292 19 6.16667 17.0116 6.16667 14.5362C6.16667 12.0812 8.10259 10.113 10.5023 10.0725V12.4667C9.41337 12.5072 8.52607 13.4203 8.52607 14.5362C8.52607 15.6725 9.43353 16.6058 10.5628 16.6058C11.6921 16.6058 12.5996 15.6725 12.5996 14.5362V5Z" fill="#FFFFF1"/>
</svg>
